<svg class="animated" id="freepik_stories-high-five-hands" xmlns="http://www.w3.org/2000/svg" viewBox="0 0 500 500" version="1.1" xmlns:xlink="http://www.w3.org/1999/xlink" xmlns:svgjs="http://svgjs.com/svgjs"><style>svg#freepik_stories-high-five-hands:not(.animated) .animable {opacity: 0;}svg#freepik_stories-high-five-hands.animated #freepik--Lines--inject-152 {animation: 3s Infinite  linear floating;animation-delay: 0s;}svg#freepik_stories-high-five-hands.animated #freepik--hand-2--inject-152 {animation: 3s Infinite  linear heartbeat;animation-delay: 0s;}svg#freepik_stories-high-five-hands.animated #freepik--hand-1--inject-152 {animation: 3s Infinite  linear heartbeat;animation-delay: 0s;}            @keyframes floating {                0% {                    opacity: 1;                    transform: translateY(0px);                }                50% {                    transform: translateY(-10px);                }                100% {                    opacity: 1;                    transform: translateY(0px);                }            }                    @keyframes heartbeat {                0% {                    transform: scale(1);                }                10% {                    transform: scale(1.1);                }                30% {                    transform: scale(1);                }                40% {                    transform: scale(1);                }                50% {                    transform: scale(1.1);                }                60% {                    transform: scale(1);                }                100% {                    transform: scale(1);                }            }        </style><g id="freepik--background-simple--inject-152" style="transform-origin: 249.051px 251.746px 0px;" class="animable"><path d="M330.49,47.67S250.25,17.78,172.41,62.78,56.15,198.56,23.08,271.25s-12.58,147.33,47.69,182,100.36-14.81,184.29-16.18,106.67,11.12,175.74-36.24,80.26-161.12,24.25-246.11S330.49,47.67,330.49,47.67Z" style="fill: #00FF88; transform-origin: 249.051px 251.746px 0px;" id="el9l25a0v7dtd" class="animable"></path><g id="elkxia951mb5d"><path d="M330.49,47.67S250.25,17.78,172.41,62.78,56.15,198.56,23.08,271.25s-12.58,147.33,47.69,182,100.36-14.81,184.29-16.18,106.67,11.12,175.74-36.24,80.26-161.12,24.25-246.11S330.49,47.67,330.49,47.67Z" style="fill: rgb(255, 255, 255); opacity: 0.7; transform-origin: 249.051px 251.746px 0px;" class="animable" id="ela5rzimwgoa"></path></g></g><g id="freepik--Shapes--inject-152" style="transform-origin: 248.004px 253.511px 0px;" class="animable"><g id="elrzg0k5pdvph"><g style="opacity: 0.3; transform-origin: 248.004px 253.511px 0px;" class="animable" id="eljz6m50hk0go"><g id="elkfx2ej4mcoa"><rect x="392.69" y="287.68" width="19.31" height="19.31" style="fill: none; stroke: rgb(0, 0, 0); stroke-linecap: round; stroke-linejoin: round; transform-origin: 402.345px 297.335px 0px; transform: rotate(-45deg);" class="animable" id="elijw5vmctfgg"></rect></g><g id="el13i5er5678bq"><rect x="98.18" y="46.35" width="19.31" height="19.31" style="fill: none; stroke: rgb(0, 0, 0); stroke-linecap: round; stroke-linejoin: round; transform-origin: 107.835px 56.005px 0px; transform: rotate(-45deg);" class="animable" id="elj8a0btsi75"></rect></g><g id="elyasrlb1wv7m"><rect x="77.05" y="329.55" width="11.94" height="11.94" style="fill: none; stroke: rgb(0, 0, 0); stroke-linecap: round; stroke-linejoin: round; transform-origin: 83.02px 335.52px 0px; transform: rotate(-45deg);" class="animable" id="el0iv7f0uv0d0o"></rect></g><g id="elhnk81kohpvb"><rect x="29.33" y="192.52" width="11.94" height="11.94" style="fill: none; stroke: rgb(0, 0, 0); stroke-linecap: round; stroke-linejoin: round; transform-origin: 35.3px 198.49px 0px; transform: rotate(-45deg);" class="animable" id="elim7gzendn4p"></rect></g><g id="el9ujhueht3qu"><rect x="374.53" y="94.79" width="11.94" height="11.94" style="fill: none; stroke: rgb(0, 0, 0); stroke-linecap: round; stroke-linejoin: round; transform-origin: 380.5px 100.76px 0px; transform: rotate(-45deg);" class="animable" id="elbs4rwwpc02m"></rect></g><g id="elo51e9z79m0j"><rect x="93.46" y="339.98" width="16.98" height="16.98" style="fill: none; stroke: rgb(0, 0, 0); stroke-linecap: round; stroke-linejoin: round; transform-origin: 101.95px 348.47px 0px; transform: rotate(-45deg);" class="animable" id="elfwpp3lepee9"></rect></g><g id="elegzr6nesx9"><rect x="335.43" y="326.14" width="11.94" height="11.94" style="fill: none; stroke: rgb(0, 0, 0); stroke-linecap: round; stroke-linejoin: round; transform-origin: 341.4px 332.11px 0px; transform: rotate(-45deg);" class="animable" id="eldbdj9p49nm"></rect></g><g id="elm9db6h5hds"><rect x="394.75" y="79.81" width="22.85" height="22.85" style="fill: none; stroke: rgb(0, 0, 0); stroke-linecap: round; stroke-linejoin: round; transform-origin: 406.175px 91.235px 0px; transform: rotate(-45deg);" class="animable" id="eloh41ms162ec"></rect></g><g id="eliws5wp5j3pc"><rect x="227.04" y="459.08" width="11.94" height="11.94" style="fill: none; stroke: rgb(0, 0, 0); stroke-linecap: round; stroke-linejoin: round; transform-origin: 233.01px 465.05px 0px; transform: rotate(-45deg);" class="animable" id="eljfbcep0dmx"></rect></g><circle cx="64.88" cy="189.63" r="12.27" style="fill: none; stroke: rgb(0, 0, 0); stroke-linecap: round; stroke-linejoin: round; transform-origin: 64.88px 189.63px 0px;" id="elvnldlugvwre" class="animable"></circle><circle cx="420.75" cy="227.8" r="11.59" style="fill: none; stroke: rgb(0, 0, 0); stroke-linecap: round; stroke-linejoin: round; transform-origin: 420.75px 227.8px 0px;" id="el6dc0ibmgj2" class="animable"></circle><circle cx="462.33" cy="148.04" r="6.82" style="fill: none; stroke: rgb(0, 0, 0); stroke-linecap: round; stroke-linejoin: round; transform-origin: 462.33px 148.04px 0px;" id="elowz0pqx76e" class="animable"></circle><path d="M326,58.73a4.1,4.1,0,1,0-4.09,4.09A4.09,4.09,0,0,0,326,58.73Z" style="fill: none; stroke: rgb(0, 0, 0); stroke-linecap: round; stroke-linejoin: round; transform-origin: 321.9px 58.72px 0px;" id="elyiish9h4qz" class="animable"></path><circle cx="154.19" cy="291.89" r="4.09" style="fill: none; stroke: rgb(0, 0, 0); stroke-linecap: round; stroke-linejoin: round; transform-origin: 154.19px 291.89px 0px;" id="el7zi3860mqvr" class="animable"></circle><circle cx="57.38" cy="401.65" r="6.14" style="fill: none; stroke: rgb(0, 0, 0); stroke-linecap: round; stroke-linejoin: round; transform-origin: 57.38px 401.65px 0px;" id="elif4qcs59b6" class="animable"></circle><path d="M428.93,391.42a5.46,5.46,0,1,0-5.45,5.46A5.45,5.45,0,0,0,428.93,391.42Z" style="fill: none; stroke: rgb(0, 0, 0); stroke-linecap: round; stroke-linejoin: round; transform-origin: 423.47px 391.42px 0px;" id="elf2p5x4abfej" class="animable"></path><path d="M385.3,39a5.46,5.46,0,1,0-5.46,5.45A5.45,5.45,0,0,0,385.3,39Z" style="fill: none; stroke: rgb(0, 0, 0); stroke-linecap: round; stroke-linejoin: round; transform-origin: 379.84px 38.9899px 0px;" id="ellae6t2em4fi" class="animable"></path></g></g></g><g id="freepik--Lines--inject-152" style="transform-origin: 241.79px 145.31px 0px;" class="animable"><line x1="167.14" y1="248.26" x2="128.28" y2="269.39" style="fill: none; stroke: rgb(38, 50, 56); stroke-linecap: round; stroke-linejoin: round; stroke-width: 3px; transform-origin: 147.71px 258.825px 0px;" id="elesnv8vhkqnc" class="animable"></line><line x1="93.51" y1="133.04" x2="135.1" y2="149.4" style="fill: none; stroke: rgb(38, 50, 56); stroke-linecap: round; stroke-linejoin: round; stroke-width: 3px; transform-origin: 114.305px 141.22px 0px;" id="el2nv8m04nszd" class="animable"></line><line x1="143.28" y1="40.32" x2="169.87" y2="83.27" style="fill: none; stroke: rgb(38, 50, 56); stroke-linecap: round; stroke-linejoin: round; stroke-width: 3px; transform-origin: 156.575px 61.795px 0px;" id="elcmb689l49fq" class="animable"></line><line x1="233.95" y1="21.23" x2="232.59" y2="55.32" style="fill: none; stroke: rgb(38, 50, 56); stroke-linecap: round; stroke-linejoin: round; stroke-width: 3px; transform-origin: 233.27px 38.275px 0px;" id="elod6lj4hdl3" class="animable"></line><line x1="311.67" y1="102.36" x2="346.44" y2="67.59" style="fill: none; stroke: rgb(38, 50, 56); stroke-linecap: round; stroke-linejoin: round; stroke-width: 3px; transform-origin: 329.055px 84.975px 0px;" id="elkn0zva0vj89" class="animable"></line><line x1="360.07" y1="172.58" x2="390.07" y2="162.36" style="fill: none; stroke: rgb(38, 50, 56); stroke-linecap: round; stroke-linejoin: round; stroke-width: 3px; transform-origin: 375.07px 167.47px 0px;" id="el9hqx3fg6eyu" class="animable"></line><line x1="331.44" y1="248.94" x2="356.66" y2="263.25" style="fill: none; stroke: rgb(38, 50, 56); stroke-linecap: round; stroke-linejoin: round; stroke-width: 3px; transform-origin: 344.05px 256.095px 0px;" id="eli8np2u9ahur" class="animable"></line><line x1="134.42" y1="101.68" x2="154.87" y2="117.36" style="fill: none; stroke: rgb(38, 50, 56); stroke-linecap: round; stroke-linejoin: round; stroke-width: 3px; transform-origin: 144.645px 109.52px 0px;" id="elimjp8y90w8" class="animable"></line><line x1="354.62" y1="131" x2="332.8" y2="141.22" style="fill: none; stroke: rgb(38, 50, 56); stroke-linecap: round; stroke-linejoin: round; stroke-width: 3px; transform-origin: 343.71px 136.11px 0px;" id="elvd7agwmf4vc" class="animable"></line><line x1="141.91" y1="205.31" x2="118.73" y2="212.12" style="fill: none; stroke: rgb(38, 50, 56); stroke-linecap: round; stroke-linejoin: round; stroke-width: 3px; transform-origin: 130.32px 208.715px 0px;" id="elvcxgevuh35" class="animable"></line><line x1="340.98" y1="214.17" x2="351.89" y2="216.9" style="fill: none; stroke: rgb(38, 50, 56); stroke-linecap: round; stroke-linejoin: round; stroke-width: 3px; transform-origin: 346.435px 215.535px 0px;" id="eljl7bdo3mt8o" class="animable"></line></g><g id="freepik--hand-2--inject-152" style="transform-origin: 343.526px 272.447px 0px;" class="animable"><path d="M350.32,173.58c-3.86-2.67-18.38-.3-27.57,7.11s-11.26,10.08-11.26,10.08-4.15-29.05-4.15-29.94-5.93-55.43-7.12-63.43-3-19.86-4.74-22.53-8.89-3-11.26-1.77l-2.37,1.18s1.18-20.75-1.19-25.79-9.78-2.07-11.86.6a29.18,29.18,0,0,0-3.55,6.81s-6.82-2.37-10.67,5.34-6.82,14.52-7.41,21.93-3.86,16.9-3.86,16.9-3.85-6.23-8-2.67-8.89,17.49-10.08,27.57-2.37,36.75-2.37,36.75-2.37,12.15-3.56,21.94-.29,50.39,4.15,67.28,10.38,27.57,10.38,27.57,10.37,34.08,11.85,38.83,17.79,69.36,17.79,69.36L312.08,325s-12.15-33.49-14.82-41.2-4.45-10.08-4.45-10.08,14.82-21,22.83-27.27,12.15-27,14.22-36.16,10.67-21.93,15.42-26.08S354.17,176.25,350.32,173.58ZM240.64,159.35c-.88,0-.59-11.56-.59-25.49s2.37-20.16,2.37-20.16c-1.18,6.23,1.19,37.05,1.19,39.13S241.53,159.35,240.64,159.35Z" style="fill: rgb(255, 255, 255); stroke: rgb(38, 50, 56); stroke-linecap: round; stroke-linejoin: round; transform-origin: 285.329px 216.227px 0px;" id="eljyji2np883" class="animable"></path><path d="M285.47,278.83c3.71-1.88,4.38-3.88,4.38-3.88" style="fill: none; stroke: rgb(38, 50, 56); stroke-linecap: round; stroke-linejoin: round; transform-origin: 287.66px 276.89px 0px;" id="elbr86rhkjr4p" class="animable"></path><path d="M256.35,272s16.31,10.67,24.31,8.59" style="fill: none; stroke: rgb(38, 50, 56); stroke-linecap: round; stroke-linejoin: round; transform-origin: 268.505px 276.429px 0px;" id="elk9d4e5with" class="animable"></path><path d="M311.49,190.77s-6.23,9.78-7.71,13.34-2.37,6.52-5,8-6.22,3.56-6.22,3.56" style="fill: none; stroke: rgb(38, 50, 56); stroke-linecap: round; stroke-linejoin: round; transform-origin: 302.025px 203.22px 0px;" id="elrt5cakrswr" class="animable"></path><path d="M293.58,193.67c-7.54,3.5-18.15,9.68-24.18,18.74" style="fill: none; stroke: rgb(38, 50, 56); stroke-linecap: round; stroke-linejoin: round; transform-origin: 281.49px 203.04px 0px;" id="eli8lvbz23l5i" class="animable"></path><path d="M302.3,190.18s-2.18.67-5.48,2" style="fill: none; stroke: rgb(38, 50, 56); stroke-linecap: round; stroke-linejoin: round; transform-origin: 299.56px 191.18px 0px;" id="elbizkp0o5ydf" class="animable"></path><path d="M266.14,216.26s-5.34,9.78-7.71,17.49" style="fill: none; stroke: rgb(38, 50, 56); stroke-linecap: round; stroke-linejoin: round; transform-origin: 262.285px 225.005px 0px;" id="elkqw2fn88jll" class="animable"></path><path d="M265.25,55.9S263.76,68.35,261.69,87s-3.26,27.86-3,39.72S262.28,149,262,150.46" style="fill: none; stroke: rgb(38, 50, 56); stroke-linecap: round; stroke-linejoin: round; transform-origin: 261.952px 103.18px 0px;" id="els2uuuudynv" class="animable"></path><path d="M281.85,74.28a97.37,97.37,0,0,0,0,17.79c.88,10.07-.89,28.75-.89,35.86s.29,17.79.59,21a12.21,12.21,0,0,0,2.07,5.63" style="fill: none; stroke: rgb(38, 50, 56); stroke-linecap: round; stroke-linejoin: round; transform-origin: 282.29px 114.42px 0px;" id="elreqlf5nwzte" class="animable"></path><path d="M287.48,156.39s1.48,2.66,11.26,3" style="fill: none; stroke: rgb(38, 50, 56); stroke-linecap: round; stroke-linejoin: round; transform-origin: 293.11px 157.89px 0px;" id="el6t7ro96i8s" class="animable"></path><path d="M265,149.27s7.11,1.48,11.86.6" style="fill: none; stroke: rgb(38, 50, 56); stroke-linecap: round; stroke-linejoin: round; transform-origin: 270.93px 149.71px 0px;" id="eljpkcha9hz9" class="animable"></path><path d="M239.16,161.72s0,3-8.59,5.63" style="fill: none; stroke: rgb(38, 50, 56); stroke-linecap: round; stroke-linejoin: round; transform-origin: 234.865px 164.535px 0px;" id="elj4am1feqor" class="animable"></path><path d="M256.06,153.72c.89-.59,4.44-1.78,5.33-5.93" style="fill: none; stroke: rgb(38, 50, 56); stroke-linecap: round; stroke-linejoin: round; transform-origin: 258.725px 150.755px 0px;" id="elfck36qi9msb" class="animable"></path><path d="M256.57,199.12s18.43-6.75,30.1-9.21" style="fill: none; stroke: rgb(38, 50, 56); stroke-linecap: round; stroke-linejoin: round; transform-origin: 271.62px 194.515px 0px;" id="el36eucsb6w7o" class="animable"></path><path d="M308.89,499.14H468.23c-11.13-14.69-51.74-68.22-54.39-70.87-3.07-3.07-16.59-4.91-16.59-4.91l-39.93-33.18-49.76-82.32L260.25,373.6l-8-32L234.45,408s64.51,78.64,67,81.71C301.89,490.3,304.67,493.83,308.89,499.14Z" style="fill: rgb(38, 50, 56); stroke: rgb(38, 50, 56); stroke-linecap: round; stroke-linejoin: round; transform-origin: 351.34px 403.5px 0px;" id="el4ypbvcryj0s" class="animable"></path></g><g id="freepik--hand-1--inject-152" style="transform-origin: 171.158px 277.437px 0px;" class="animable"><path d="M184.12,268.68s-13.19-33.78-16.37-40-20.44-33.23-21.31-40.55-3.57-19.52-6.35-24.62,5.5-8.44,12.34-2,11,17,10.9,20,15.36,14.35,15.36,14.35l2.81-26s3-64.59,2.37-74.23-1.25-30.11,6.4-30.9S199.1,70,199.1,70s.28-15.26,8.78-14.27c6.5.75,9,6.88,9.94,9.82s2.07,6.62,2.07,6.62,5.36-3.64,10.59,5c3,5,9.38,20.64,10.41,24.62s1.35,5.42,1.35,5.42a11.39,11.39,0,0,1,10.35,7.33c3.18,7.57,7.7,27.33,12.07,43.66a133.47,133.47,0,0,1,4.19,31.86s1.71,52.57-1.81,69.29-10.14,31-11.5,32.33-20.91,59.08-20.91,59.08l-67.84-25.15s14.13-34.71,16.36-42.28A35.45,35.45,0,0,0,184.12,268.68Z" style="fill: rgb(255, 255, 255); stroke: rgb(38, 50, 56); stroke-linecap: round; stroke-linejoin: round; transform-origin: 204.402px 203.222px 0px;" id="elig9bxznuq9e" class="animable"></path><path d="M169.92,219.4a19.94,19.94,0,0,0,.86,5.3" style="fill: none; stroke: rgb(38, 50, 56); stroke-linecap: round; stroke-linejoin: round; transform-origin: 170.35px 222.05px 0px;" id="el5bvbpu0itnl" class="animable"></path><path d="M176.61,198.74a32.69,32.69,0,0,0-5.82,12.42,30.2,30.2,0,0,0-.77,4.49" style="fill: none; stroke: rgb(38, 50, 56); stroke-linecap: round; stroke-linejoin: round; transform-origin: 173.315px 207.195px 0px;" id="elibr5o9iyeaa" class="animable"></path><path d="M199.1,70s1.18,21,2,31.3,1.17,26.36,1.24,36.88-1.21,23.73-1.93,26.6a51.23,51.23,0,0,1-2.32,6.52" style="fill: none; stroke: rgb(38, 50, 56); stroke-linecap: round; stroke-linejoin: round; transform-origin: 200.216px 120.65px 0px;" id="el3ea68a4huql" class="animable"></path><path d="M219.89,72.15a11.09,11.09,0,0,0-2.24,8.91c1.11,5,6.27,33.06,6.26,37.12s.29,39.35.37,41.74-1.61,10.43-2.41,13.62" style="fill: none; stroke: rgb(38, 50, 56); stroke-linecap: round; stroke-linejoin: round; transform-origin: 220.876px 122.845px 0px;" id="el4xtt06arhg6" class="animable"></path><path d="M242.24,107.21s-3.82.39-3,6.37,2.76,25.41,2.76,30.82,1.26,17.92,1,29.71S245.51,190,246.79,193" style="fill: none; stroke: rgb(38, 50, 56); stroke-linecap: round; stroke-linejoin: round; transform-origin: 242.957px 150.105px 0px;" id="elgqsvo8bw17i" class="animable"></path><path d="M183.24,185.85s-1.36,6.77.47,10.27,4.37,10.92,4.36,15" style="fill: none; stroke: rgb(38, 50, 56); stroke-linecap: round; stroke-linejoin: round; transform-origin: 185.412px 198.485px 0px;" id="elwu4faopc8kn" class="animable"></path><path d="M196.94,182.51s-.72,5.58.07,9.16a25,25,0,0,0,3.26,7.25" style="fill: none; stroke: rgb(38, 50, 56); stroke-linecap: round; stroke-linejoin: round; transform-origin: 198.455px 190.715px 0px;" id="elnmyw55ec7g" class="animable"></path><path d="M219.79,191.29s-.8,5.9.63,9.64a46.13,46.13,0,0,0,3.1,6.54" style="fill: none; stroke: rgb(38, 50, 56); stroke-linecap: round; stroke-linejoin: round; transform-origin: 221.543px 199.38px 0px;" id="elal3l18r86c" class="animable"></path><path d="M189,499.14l63.07-142.31S225.18,334.61,207.48,323s-38.92-11.31-38.92-11.31-27.71,59.05-29.17,62.81-20.78,43.77-20.78,43.77-8.49,3-12.26,9.81c-2.95,5.32-24.23,51.42-33.3,71.11Z" style="fill: #00FF88; stroke: rgb(38, 50, 56); stroke-linecap: round; stroke-linejoin: round; transform-origin: 162.56px 405.44px 0px;" id="eletfks37siq9" class="animable"></path><g id="el7epysg0iekr"><circle cx="230.67" cy="361.08" r="5.88" style="fill: rgb(38, 50, 56); stroke: rgb(38, 50, 56); stroke-linecap: round; stroke-linejoin: round; transform-origin: 230.67px 361.08px 0px; transform: rotate(-30.6deg);" class="animable" id="eljlkaria5c7"></circle></g><path d="M227.48,384.52a5.88,5.88,0,1,1-4.27-7.13A5.87,5.87,0,0,1,227.48,384.52Z" style="fill: rgb(38, 50, 56); stroke: rgb(38, 50, 56); stroke-linecap: round; stroke-linejoin: round; transform-origin: 221.777px 383.092px 0px;" id="el10cihm3skak" class="animable"></path></g><defs>     <filter id="active" height="200%">         <feMorphology in="SourceAlpha" result="DILATED" operator="dilate" radius="2"></feMorphology>                <feFlood flood-color="#32DFEC" flood-opacity="1" result="PINK"></feFlood>        <feComposite in="PINK" in2="DILATED" operator="in" result="OUTLINE"></feComposite>        <feMerge>            <feMergeNode in="OUTLINE"></feMergeNode>            <feMergeNode in="SourceGraphic"></feMergeNode>        </feMerge>    </filter>    <filter id="hover" height="200%">        <feMorphology in="SourceAlpha" result="DILATED" operator="dilate" radius="2"></feMorphology>                <feFlood flood-color="#ff0000" flood-opacity="0.5" result="PINK"></feFlood>        <feComposite in="PINK" in2="DILATED" operator="in" result="OUTLINE"></feComposite>        <feMerge>            <feMergeNode in="OUTLINE"></feMergeNode>            <feMergeNode in="SourceGraphic"></feMergeNode>        </feMerge>            <feColorMatrix type="matrix" values="0   0   0   0   0                0   1   0   0   0                0   0   0   0   0                0   0   0   1   0 "></feColorMatrix>    </filter></defs></svg>